<?xml version="1.0" encoding="utf-8"?>
<!-- Generator: Adobe Illustrator 23.0.2, SVG Export Plug-In . SVG Version: 6.00 Build 0)  -->
<svg version="1.1" id="Layer_1" xmlns="http://www.w3.org/2000/svg" xmlns:xlink="http://www.w3.org/1999/xlink" x="0px" y="0px"
	 viewBox="0 0 839 189" style="enable-background:new 0 0 839 189;" xml:space="preserve">
<style type="text/css">
	.st0{fill:#001E43;}
	.st1{fill:#00C4B1;}
	.st2{fill:#FFFFFF;}
	.st3{fill:none;}
	.st4{fill:#334B69;}
</style>
<path class="st1" d="M139.1,91.9l-50.3,50.3L38.5,91.9c-18-18-24.1-24-24.1-39.7c0-6.7,1.8-13.3,5.2-19.1C30.2,15,53.4,9,71.4,19.6
	l9.7-9.7C72.6,4.1,62.5,1,52.2,1C24,1,1.1,23.9,1.1,52.2c0,21.2,9.3,30.5,28,49.1l59.8,59.8l59.1-59.1l0.6-0.6
	c18.6-18.7,28-28,28-49.2c0-13.6-5.4-26.6-15-36.2c-20-20-52.4-20-72.4,0L39.7,65.4l19.9,20c9.6,9.6,19.6,14.6,29,14.6h0.1
	c9.2,0,17.9-3.7,24.4-10.2c13.5-13.5,13.5-35.5,0-49l-7.9-7.9l-9.5,9.5l7.9,7.9c4,4,6.2,9.4,6.2,15c0,11.8-9.5,21.3-21.3,21.4l0,0
	c-5.7,0-12.7-3.8-19.6-10.7L58.6,65.4l40-39.9c7.1-7.1,16.7-11,26.7-11c20.9,0,37.8,16.9,37.9,37.8
	C163.1,67.9,157.1,73.9,139.1,91.9"/>
<g>
	<path class="st2" d="M233.3,54.4h-23V37.6h67.1v16.8h-22.9v58.1h-21.2V54.4z"/>
	<path class="st2" d="M342.1,54.5l-25.1,60.4c-2.9,7.1-6.5,12.2-10.7,15c-4.2,2.9-9.3,4.3-15.4,4.3c-3.1,0-6.2-0.5-9.3-1.4
		c-3.1-1-5.6-2.2-7.5-3.8l7.1-14.2c1.1,1.1,2.5,1.9,4.1,2.5c1.6,0.6,3.2,0.9,4.9,0.9c1.9,0,3.5-0.4,4.8-1.2c1.2-0.8,2.3-2,3.2-3.7
		l-24.8-58.8h20.9l14.2,35.4l14.3-35.4H342.1z"/>
	<path class="st2" d="M406.7,54.5l-25,60.4c-2.9,7.1-6.5,12.2-10.7,15c-4.2,2.9-9.4,4.3-15.4,4.3c-3.1,0-6.2-0.5-9.3-1.4
		c-3.1-1-5.6-2.2-7.5-3.8l7.1-14.2c1.1,1.1,2.5,1.9,4.1,2.5c1.6,0.6,3.2,0.9,4.9,0.9c1.9,0,3.5-0.4,4.8-1.2c1.2-0.8,2.3-2,3.2-3.7
		l-24.8-58.8h20.9L373,89.9l14.3-35.4H406.7z"/>
	<path class="st2" d="M462.8,57.2c4.3,2.5,7.7,6,10.3,10.5c2.5,4.5,3.8,9.8,3.8,15.8c0,6-1.3,11.3-3.8,15.8c-2.5,4.5-6,8-10.3,10.5
		c-4.3,2.5-9.1,3.7-14.4,3.7c-6.8,0-12.2-2-16.2-6.1v25.9h-20.3V54.5h19.4v5.8c3.8-4.5,9.5-6.7,17.1-6.7
		C453.7,53.5,458.5,54.7,462.8,57.2z M452.9,93.6c2.3-2.5,3.4-5.8,3.4-10.1c0-4.3-1.1-7.7-3.4-10.1c-2.3-2.5-5.2-3.7-8.8-3.7
		c-3.6,0-6.5,1.2-8.8,3.7c-2.3,2.5-3.4,5.8-3.4,10.1c0,4.3,1.1,7.7,3.4,10.1c2.3,2.5,5.2,3.7,8.8,3.7
		C447.7,97.3,450.7,96.1,452.9,93.6z"/>
	<path class="st2" d="M537.2,57.2c4.3,2.5,7.7,6,10.3,10.5c2.5,4.5,3.8,9.8,3.8,15.8c0,6-1.3,11.3-3.8,15.8c-2.5,4.5-6,8-10.3,10.5
		c-4.3,2.5-9.1,3.7-14.4,3.7c-6.8,0-12.2-2-16.2-6.1v25.9h-20.3V54.5h19.4v5.8c3.8-4.5,9.5-6.7,17.1-6.7
		C528.1,53.5,532.9,54.7,537.2,57.2z M527.3,93.6c2.3-2.5,3.4-5.8,3.4-10.1c0-4.3-1.1-7.7-3.4-10.1c-2.3-2.5-5.2-3.7-8.8-3.7
		c-3.6,0-6.5,1.2-8.8,3.7c-2.3,2.5-3.4,5.8-3.4,10.1c0,4.3,1.1,7.7,3.4,10.1c2.3,2.5,5.2,3.7,8.8,3.7
		C522.1,97.3,525.1,96.1,527.3,93.6z"/>
	<path class="st2" d="M561.9,44.9c-2.3-2.1-3.4-4.6-3.4-7.7c0-3.1,1.1-5.6,3.4-7.7c2.3-2.1,5.3-3.1,9-3.1c3.7,0,6.7,1,9,2.9
		c2.3,2,3.4,4.5,3.4,7.5c0,3.2-1.1,5.9-3.4,8c-2.3,2.1-5.3,3.2-9,3.2C567.2,48,564.2,47,561.9,44.9z M560.7,54.5h20.3v58h-20.3V54.5
		z"/>
	<path class="st2" d="M634.3,110.1c-1.7,1.1-3.8,1.9-6.3,2.5c-2.5,0.6-5.1,0.9-7.9,0.9c-7.6,0-13.4-1.9-17.4-5.6s-6.1-9.2-6.1-16.6
		V71.8h-8.5V56.6h8.5V41.5h20.3v15.1h13.3v15.2h-13.3v19.3c0,2.1,0.6,3.7,1.7,4.9c1.1,1.2,2.6,1.8,4.4,1.8c2.4,0,4.4-0.6,6.2-1.8
		L634.3,110.1z"/>
	<path class="st2" d="M699.4,88.6h-42.2c0.9,3,2.5,5.3,5,6.9c2.5,1.6,5.5,2.4,9.3,2.4c2.8,0,5.2-0.4,7.2-1.2c2-0.8,4.1-2.1,6.2-3.9
		l10.7,11.1c-5.6,6.3-13.9,9.4-24.7,9.4c-6.8,0-12.7-1.3-17.9-3.9c-5.1-2.6-9.1-6.1-11.9-10.7c-2.8-4.6-4.2-9.7-4.2-15.5
		c0-5.7,1.4-10.8,4.1-15.4c2.7-4.5,6.5-8.1,11.4-10.7c4.9-2.6,10.3-3.9,16.4-3.9c5.8,0,11,1.2,15.7,3.6c4.7,2.4,8.4,5.9,11.2,10.4
		c2.7,4.5,4.1,9.9,4.1,16.1C699.7,83.7,699.6,85.4,699.4,88.6z M660.9,70.6c-2.1,1.8-3.4,4.2-4,7.3h23.8c-0.6-3.1-1.9-5.5-4-7.3
		c-2.1-1.8-4.7-2.7-7.9-2.7C665.6,68,663,68.9,660.9,70.6z"/>
	<path class="st2" d="M715.9,111.8c-4.7-1.1-8.5-2.6-11.3-4.3l6.1-13.9c2.6,1.6,5.8,2.9,9.4,3.9c3.6,1,7.2,1.4,10.8,1.4
		c3.3,0,5.6-0.3,7-1c1.4-0.7,2.1-1.7,2.1-2.9c0-1.3-0.8-2.2-2.5-2.7c-1.7-0.5-4.3-1.1-8-1.6c-4.6-0.6-8.6-1.3-11.8-2.2
		c-3.2-0.9-6-2.6-8.4-5.1c-2.4-2.5-3.5-6-3.5-10.5c0-3.7,1.1-7,3.3-9.9c2.2-2.9,5.4-5.2,9.7-6.9c4.2-1.7,9.3-2.5,15.3-2.5
		c4.2,0,8.4,0.4,12.5,1.3c4.1,0.9,7.6,2.1,10.4,3.6l-6.1,13.8c-5.1-2.9-10.7-4.3-16.7-4.3c-3.2,0-5.6,0.4-7.1,1.1
		c-1.5,0.8-2.2,1.7-2.2,2.9c0,1.4,0.8,2.3,2.5,2.8c1.6,0.5,4.4,1.1,8.1,1.7c4.8,0.7,8.7,1.5,11.9,2.5c3.1,0.9,5.9,2.6,8.2,5.1
		c2.3,2.5,3.5,5.9,3.5,10.3c0,3.6-1.1,6.9-3.3,9.8c-2.2,2.9-5.5,5.2-9.8,6.8c-4.3,1.6-9.5,2.5-15.6,2.5
		C725.4,113.5,720.6,112.9,715.9,111.8z"/>
	<path class="st2" d="M807.7,110.1c-1.7,1.1-3.8,1.9-6.3,2.5c-2.5,0.6-5.1,0.9-7.9,0.9c-7.6,0-13.4-1.9-17.4-5.6s-6.1-9.2-6.1-16.6
		V71.8h-8.5V56.6h8.5V41.5h20.3v15.1h13.3v15.2h-13.3v19.3c0,2.1,0.6,3.7,1.7,4.9c1.1,1.2,2.6,1.8,4.4,1.8c2.4,0,4.4-0.6,6.2-1.8
		L807.7,110.1z"/>
	<path class="st2" d="M816.7,44.9c-2.3-2.1-3.4-4.6-3.4-7.7c0-3.1,1.1-5.6,3.4-7.7c2.3-2.1,5.3-3.1,9-3.1c3.7,0,6.7,1,9,2.9
		c2.3,2,3.4,4.5,3.4,7.5c0,3.2-1.1,5.9-3.4,8c-2.3,2.1-5.3,3.2-9,3.2C822,48,819,47,816.7,44.9z M815.5,54.5h20.3v58h-20.3V54.5z"/>
</g>
<g>
	<path class="st2" d="M556.9,152.3c2,1.1,3.5,2.6,4.6,4.6c1.1,2,1.7,4.3,1.7,6.8s-0.6,4.8-1.7,6.8c-1.1,2-2.6,3.5-4.6,4.7
		c-2,1.1-4.2,1.7-6.6,1.7c-2.2,0-4.1-0.5-5.8-1.4c-1.7-0.9-3.1-2.2-4.1-4v5.1h-3.3v-36.4h3.5v15.5c1.1-1.7,2.5-2.9,4.1-3.8
		c1.7-0.9,3.6-1.3,5.7-1.3C552.8,150.7,555,151.2,556.9,152.3z M555,172.6c1.5-0.8,2.6-2,3.5-3.6s1.3-3.3,1.3-5.2
		c0-2-0.4-3.7-1.3-5.2s-2-2.7-3.5-3.6s-3.1-1.3-4.9-1.3c-1.8,0-3.5,0.4-4.9,1.3s-2.6,2-3.4,3.6s-1.3,3.3-1.3,5.2
		c0,2,0.4,3.7,1.3,5.2s2,2.7,3.4,3.6s3.1,1.3,4.9,1.3C551.9,173.8,553.5,173.4,555,172.6z"/>
	<path class="st2" d="M591.3,150.8l-12.9,28.9c-1,2.4-2.3,4.1-3.6,5.2c-1.4,1-3,1.5-5,1.5c-1.2,0-2.4-0.2-3.5-0.6s-2-1-2.8-1.8
		l1.6-2.6c1.3,1.3,2.9,2,4.7,2c1.2,0,2.2-0.3,3-1s1.6-1.8,2.3-3.3l1.1-2.5l-11.5-25.8h3.6l9.7,21.9l9.7-21.9H591.3z"/>
	<path class="st2" d="M609.8,142.3h14c3.6,0,6.8,0.7,9.6,2.2s4.9,3.5,6.5,6.1c1.5,2.6,2.3,5.6,2.3,8.9s-0.8,6.3-2.3,8.9
		c-1.5,2.6-3.7,4.6-6.5,6.1s-6,2.2-9.6,2.2h-14V142.3z M623.5,173.5c3,0,5.6-0.6,7.9-1.8c2.3-1.2,4-2.8,5.2-5
		c1.2-2.1,1.9-4.5,1.9-7.3s-0.6-5.2-1.9-7.3c-1.2-2.1-3-3.8-5.2-5c-2.3-1.2-4.9-1.8-7.9-1.8h-10.2v28.1H623.5z"/>
	<path class="st2" d="M672.8,150.8v25.8h-3.3v-4.7c-0.9,1.6-2.2,2.8-3.8,3.7c-1.6,0.9-3.4,1.3-5.5,1.3c-3.4,0-6-0.9-8-2.8
		c-1.9-1.9-2.9-4.6-2.9-8.3v-15h3.5v14.6c0,2.7,0.7,4.8,2,6.2c1.3,1.4,3.3,2.1,5.7,2.1c2.7,0,4.9-0.8,6.4-2.5
		c1.6-1.7,2.4-3.9,2.4-6.9v-13.5H672.8z"/>
	<path class="st2" d="M705.8,150.8v25.8h-3.3v-4.7c-0.9,1.6-2.2,2.8-3.8,3.7c-1.6,0.9-3.4,1.3-5.5,1.3c-3.4,0-6-0.9-8-2.8
		c-1.9-1.9-2.9-4.6-2.9-8.3v-15h3.5v14.6c0,2.7,0.7,4.8,2,6.2c1.3,1.4,3.3,2.1,5.7,2.1c2.7,0,4.9-0.8,6.4-2.5
		c1.6-1.7,2.4-3.9,2.4-6.9v-13.5H705.8z"/>
	<path class="st2" d="M736.4,153.5c1.9,1.9,2.9,4.6,2.9,8.2v15h-3.5V162c0-2.7-0.7-4.7-2-6.1c-1.3-1.4-3.3-2.1-5.7-2.1
		c-2.8,0-5,0.8-6.6,2.5c-1.6,1.7-2.4,3.9-2.4,6.8v13.5h-3.5v-25.8h3.3v4.8c0.9-1.6,2.3-2.8,3.9-3.7c1.7-0.9,3.6-1.3,5.9-1.3
		C731.9,150.7,734.5,151.6,736.4,153.5z"/>
	<path class="st2" d="M748.7,144.5c-0.5-0.5-0.7-1.1-0.7-1.8c0-0.7,0.2-1.2,0.7-1.7c0.5-0.5,1.1-0.7,1.8-0.7c0.7,0,1.3,0.2,1.8,0.7
		c0.5,0.5,0.7,1,0.7,1.7c0,0.7-0.2,1.3-0.7,1.8c-0.5,0.5-1.1,0.7-1.8,0.7C749.8,145.2,749.2,145,748.7,144.5z M748.8,150.8h3.5v25.8
		h-3.5V150.8z"/>
	<path class="st2" d="M775.5,175.1c-0.7,0.6-1.5,1-2.4,1.3s-2,0.5-3,0.5c-2.4,0-4.3-0.7-5.6-2c-1.3-1.3-2-3.2-2-5.5v-15.6h-4.6v-2.9
		h4.6v-5.6h3.5v5.6h7.8v2.9H766v15.4c0,1.5,0.4,2.7,1.2,3.5c0.8,0.8,1.9,1.2,3.3,1.2c0.7,0,1.4-0.1,2.1-0.3c0.7-0.2,1.3-0.6,1.7-1
		L775.5,175.1z"/>
	<path class="st2" d="M784.8,175.2c-2-1.1-3.6-2.7-4.7-4.7c-1.1-2-1.7-4.3-1.7-6.8c0-2.5,0.6-4.8,1.7-6.8c1.1-2,2.7-3.5,4.7-4.7
		c2-1.1,4.2-1.7,6.7-1.7s4.7,0.6,6.7,1.7c2,1.1,3.6,2.7,4.7,4.7c1.1,2,1.7,4.3,1.7,6.8c0,2.5-0.6,4.8-1.7,6.8
		c-1.1,2-2.7,3.6-4.7,4.7c-2,1.1-4.2,1.7-6.7,1.7S786.8,176.3,784.8,175.2z M796.4,172.6c1.5-0.8,2.6-2,3.4-3.6
		c0.8-1.5,1.2-3.3,1.2-5.2c0-2-0.4-3.7-1.2-5.2c-0.8-1.5-2-2.7-3.4-3.6c-1.5-0.8-3.1-1.3-4.9-1.3c-1.8,0-3.5,0.4-4.9,1.3
		s-2.6,2-3.4,3.6s-1.3,3.3-1.3,5.2c0,2,0.4,3.7,1.3,5.2s2,2.7,3.4,3.6s3.1,1.3,4.9,1.3C793.3,173.8,795,173.4,796.4,172.6z"/>
	<path class="st2" d="M818.7,152c1.6-0.9,3.6-1.3,6-1.3v3.4l-0.8,0c-2.7,0-4.8,0.8-6.4,2.5s-2.3,4-2.3,7v13.1h-3.5v-25.8h3.3v5.1
		C815.9,154.2,817.1,152.9,818.7,152z"/>
	<path class="st2" d="M830.9,144.5c-0.5-0.5-0.7-1.1-0.7-1.8c0-0.7,0.2-1.2,0.7-1.7c0.5-0.5,1.1-0.7,1.8-0.7c0.7,0,1.3,0.2,1.8,0.7
		c0.5,0.5,0.7,1,0.7,1.7c0,0.7-0.2,1.3-0.7,1.8c-0.5,0.5-1.1,0.7-1.8,0.7C832,145.2,831.4,145,830.9,144.5z M831,150.8h3.5v25.8H831
		V150.8z"/>
</g>
<g id="a">
</g>
</svg>
